<svg xmlns="http://www.w3.org/2000/svg" viewBox="0 0 38 28" role="img" aria-hidden="true"><path fill="#14a800" d="M28.18,19.06A6.54,6.54,0,0,1,23,16c.67-5.34,2.62-7,5.2-7s4.54,2,4.54,5-2,5-4.54,5m0-13.34a7.77,7.77,0,0,0-7.9,6.08,26,26,0,0,1-1.93-5.62H12v7.9c0,2.87-1.3,5-3.85,5s-4-2.12-4-5l0-7.9H.49v7.9A8.61,8.61,0,0,0,2.6,20a7.27,7.27,0,0,0,5.54,2.35c4.41,0,7.5-3.39,7.5-8.24V8.77a25.87,25.87,0,0,0,3.66,8.05L17.34,28h3.72l1.29-7.92a11,11,0,0,0,1.36,1,8.32,8.32,0,0,0,4.14,1.28h.34A8.1,8.1,0,0,0,36.37,14a8.12,8.12,0,0,0-8.19-8.31"></path></svg>